<svg style="display: none;" xmlns="http://www.w3.org/2000/svg">
        <!-- HOME ICON -->
        <symbol id="home" viewBox="0 0 24 24">
            <path d="M10 20v-6h4v6h5v-8h3L12 3 2 12h3v8z" />
        </symbol>
        <!-- USER ICON -->
        <symbol id="user" viewBox="0 0 24 24">
            <path
                d="M12 12c2.21 0 4-1.79 4-4s-1.79-4-4-4-4 1.79-4 4 1.79 4 4 4zm0 2c-3.33 0-8 1.67-8 5v2h16v-2c0-3.33-4.67-5-8-5z" />
        </symbol>
        <!-- 404 ICON -->
        <symbol id="error" viewBox="0 0 80 66">
            <path
                d="M78.4 14.9353C77.7136 14.9353 77.1613 14.383 77.1613 13.6966V4.56107C77.1613 3.53397 76.3304 2.70301 75.3033 2.70301H4.69681C3.66972 2.70301 2.83875 3.53397 2.83875 4.56107V13.6966C2.83875 14.383 2.28649 14.9353 1.60004 14.9353C0.913586 14.9353 0.361328 14.383 0.361328 13.6966V4.56107C0.361328 2.17139 2.30713 0.225586 4.69681 0.225586H75.3033C77.6929 0.225586 79.6387 2.17139 79.6387 4.56107V13.6966C79.6387 14.383 79.0865 14.9353 78.4 14.9353Z" />
            <path
                d="M75.3033 65.7741H4.69681C2.30713 65.7741 0.361328 63.8283 0.361328 61.4387V13.6967C0.361328 13.0103 0.913586 12.458 1.60004 12.458H78.4C79.0865 12.458 79.6387 13.0103 79.6387 13.6967V61.4387C79.6387 63.8283 77.6929 65.7741 75.3033 65.7741ZM2.83875 14.9354V61.4387C2.83875 62.4658 3.66972 63.2967 4.69681 63.2967H75.3033C76.3304 63.2967 77.1613 62.4658 77.1613 61.4387V14.9354H2.83875Z" />
            <path
                d="M11.2518 9.38683C10.2556 9.38683 9.44531 8.57651 9.44531 7.58038C9.44531 6.58425 10.2556 5.77393 11.2518 5.77393C12.2479 5.77393 13.0582 6.58425 13.0582 7.58038C13.0582 8.57651 12.2479 9.38683 11.2518 9.38683Z" />
            <path
                d="M18.3748 9.38683C17.3787 9.38683 16.5684 8.57651 16.5684 7.58038C16.5684 6.58425 17.3787 5.77393 18.3748 5.77393C19.3709 5.77393 20.1813 6.58425 20.1813 7.58038C20.1813 8.57651 19.3709 9.38683 18.3748 9.38683Z" />
            <path
                d="M25.4979 9.38683C24.5017 9.38683 23.6914 8.57651 23.6914 7.58038C23.6914 6.58425 24.5017 5.77393 25.4979 5.77393C26.494 5.77393 27.3043 6.58425 27.3043 7.58038C27.3043 8.57651 26.494 9.38683 25.4979 9.38683Z" />
            <path
                d="M23.3593 51.2557C22.6728 51.2557 22.1206 50.7034 22.1206 50.017V45.088H12.1335C11.669 45.088 11.2457 44.8299 11.029 44.417C10.8173 44.0041 10.8535 43.5086 11.127 43.1267L22.3528 27.4931C22.6677 27.0544 23.2251 26.8738 23.7361 27.0389C24.247 27.2041 24.5928 27.6789 24.5928 28.2157V42.6105H27.2664C27.9528 42.6105 28.5051 43.1628 28.5051 43.8493C28.5051 44.5357 27.9528 45.088 27.2664 45.088H24.5928V50.017C24.598 50.7034 24.0457 51.2557 23.3593 51.2557ZM14.549 42.6105H22.1206V32.066L14.549 42.6105Z" />
            <path
                d="M63.953 51.2552C63.2666 51.2552 62.7143 50.703 62.7143 50.0165V45.0875H52.7272C52.2627 45.0875 51.8395 44.8294 51.6227 44.4165C51.4111 44.0036 51.4472 43.5081 51.7208 43.1262L62.9466 27.4926C63.2614 27.0539 63.8188 26.8733 64.3298 27.0384C64.8408 27.2036 65.1866 27.6784 65.1866 28.2152V42.6101H67.8601C68.5466 42.6101 69.0988 43.1623 69.0988 43.8488C69.0988 44.5352 68.5466 45.0875 67.8601 45.0875H65.1866V50.0165C65.1917 50.703 64.6343 51.2552 63.953 51.2552ZM55.1427 42.6101H62.7143V32.0655L55.1427 42.6101Z" />
            <path
                d="M39.9999 51.2553C35.8967 51.2553 32.5625 47.9211 32.5625 43.8179V34.414C32.5625 30.3108 35.8967 26.9766 39.9999 26.9766C44.1031 26.9766 47.4373 30.3108 47.4373 34.414V43.8179C47.4373 47.9211 44.1031 51.2553 39.9999 51.2553ZM39.9999 29.454C37.2644 29.454 35.0399 31.6785 35.0399 34.414V43.8179C35.0399 46.5533 37.2644 48.7779 39.9999 48.7779C42.7354 48.7779 44.9599 46.5533 44.9599 43.8179V34.414C44.9599 31.6785 42.7354 29.454 39.9999 29.454Z" />
        </symbol>
        
        <!-- TRASH ICON -->
        <symbol id="trash"  viewBox="0 0 24 25" fill="transparent">
            <path d="M6 7.5V18.5C6 19.6046 6.89543 20.5 8 20.5H16C17.1046 20.5 18 19.6046 18 18.5V7.5M6 7.5H5M6 7.5H8M18 7.5H19M18 7.5H16M10 11.5V16.5M14 11.5V16.5M8 7.5V5.5C8 4.39543 8.89543 3.5 10 3.5H14C15.1046 3.5 16 4.39543 16 5.5V7.5M8 7.5H16" stroke="currentColor" stroke-width="2" stroke-linecap="round" stroke-linejoin="round"/>
        </symbol>

        <!-- EDIT ICON -->
        <symbol id="edit" viewBox="0 0 24 25" fill="transparent">
            <path d="M15 7L17.5 9.5M11 20.5H20M4 20.5V18L16.75 5.25C17.4404 4.55964 18.5596 4.55964 19.25 5.25V5.25C19.9404 5.94036 19.9404 7.05964 19.25 7.75L6.5 20.5H4Z" stroke="currentColor" stroke-width="2" stroke-linecap="round" stroke-linejoin="round"/>
        </symbol>

        <!-- ARROW RIGHT ICON -->
        <symbol id="arrowRight" viewBox="0 0 24 24">
            <g clip-path="url(#clip0_2158_1273)">
                <path d="M9.8657 6.30396L18.0619 8.50011M18.0619 8.50011L15.8657 16.6963M18.0619 8.50011L5.9375 15.5001" stroke="currentColor" stroke-width="2" stroke-linecap="round" stroke-linejoin="round"/>
            </g>
            <defs>
                <clipPath id="clip0_2158_1273">
                    <rect width="24" height="24" fill="currentColor"/>
                </clipPath>
            </defs>
        </symbol>

    </svg>